<svg xmlns="http://www.w3.org/2000/svg" version="1.1" xmlns:xlink="http://www.w3.org/1999/xlink" width="2000" height="1500" viewBox="0 0 2000 1500"><rect width="2000" height="1500" x="0" y="0" id="background" stroke="transparent" fill="#efefef"></rect><svg xml:space="preserve" width="1500" height="1125" data-version="2" data-id="lg_nb3d05dvxTCYYFVGno" viewBox="0 0 407 254" x="250" y="187.5"><rect width="100%" height="100%" fill="transparent"></rect><path fill="#f9744c" d="M403.004 74.301v93.24q0 8.14-4.81 12.86-4.81 4.71-14.06 4.71-2.41 0-4.81-.55-2.41-.56-5.09-2.04-2.68-1.48-4.72-2.77-2.03-1.3-5.08-3.98-3.06-2.68-4.81-4.25-1.76-1.58-5.46-5.09-3.7-3.52-5.37-5.18l-33.85-32.01v40.15q0 9.06-3.42 12.39-3.43 3.33-10.83 3.33-8.14 0-12.02-3.7-3.89-3.7-3.89-12.39v-89.36q0-10.54 5.37-15.91 5.36-5.36 15.35-5.36 6.85 0 11.01 2.13 4.16 2.12 9.9 7.67l46.8 46.62v-40.33q0-7.95 3.98-11.93 3.98-3.98 10.82-3.98 7.96 0 11.47 3.7 3.52 3.7 3.52 12.03M56.63 2.42A52.427 52.427 0 0 0 3.997 55.055v143.889c0 29.172 23.462 52.634 52.635 52.634H200.52c29.172 0 52.634-23.462 52.634-52.634V55.054c0-29.172-23.462-52.634-52.634-52.634zm1.87 72.671h114.197c1.505 0 2.595 1.09 2.595 2.596v18.167h-12.977c-1.35 0-2.595 1.246-2.595 2.596v38.93H55.904V77.688c0-1.506 1.09-2.596 2.595-2.596m106.412 25.954h46.717v10.382h-46.717zm17.649 2.492v5.19h11.42v-5.19zm-17.65 13.08h46.718v52.116h-46.717zM55.905 142.573H159.72v15.572H58.5a2.595 2.595 0 0 1-2.596-2.595zm59.694 4.516c-2.076 0-3.893 1.764-3.893 3.893s1.765 3.893 3.893 3.893 3.893-1.765 3.893-3.893-1.765-3.893-3.893-3.893m-12.354 16.35h24.916c-1.246 6.022-.83 11.16 1.401 14.95 1.454 2.492 3.686 3.945 5.71 5.71H95.717c2.492-2.232 5.347-4.153 6.852-7.06 2.025-3.84 2.077-8.564.675-13.6m61.667 10.486h46.717v10.174h-46.717zm23.358 2.388c-1.35 0-2.595 1.246-2.595 2.595s1.246 2.596 2.595 2.596 2.596-1.246 2.596-2.596-1.246-2.595-2.596-2.595"></path></svg></svg>